<svg viewBox="0 0 140.68 92.30" xmlns="http://www.w3.org/2000/svg" class="signature-svg">
  <path d="M 34.29,33.96 L 33.92,36.64 L 33.15,40.93 L 32.08,46.24 L 30.61,51.89 L 28.82,57.48 L 26.96,62.52 L 24.80,67.31 L 22.78,71.15 L 21.11,73.88 L 19.81,75.43 L 18.93,76.13" fill="none" stroke="#1a3c8c" stroke-width="1.6" stroke-linecap="round" stroke-linejoin="round" class="sig-stroke"/>
  <path d="M 6.00,54.10 L 6.00,53.79 L 6.00,53.23 L 6.00,52.50 L 6.00,51.59 L 6.00,50.67 L 6.07,49.68 L 6.39,48.68 L 6.84,47.55 L 7.73,46.12 L 8.90,44.48 L 10.37,42.73 L 12.26,40.71 L 14.33,38.75 L 16.64,36.94 L 19.27,35.14 L 22.19,33.44 L 25.05,31.94 L 27.68,30.70 L 29.83,29.82 L 31.45,29.27 L 32.66,28.97 L 33.55,28.92 L 34.19,29.08 L 34.60,29.53 L 34.89,30.27 L 35.09,31.84 L 34.83,33.98 L 34.02,36.49 L 32.79,39.19 L 31.34,41.82 L 29.94,44.11 L 28.82,45.91 L 28.02,47.24 L 27.52,48.26 L 27.26,49.01 L 27.44,49.72 L 28.12,50.44 L 29.14,51.26 L 30.31,52.13 L 31.42,52.96 L 32.32,53.69 L 32.96,54.48 L 33.21,55.37 L 32.94,56.60 L 32.16,58.01 L 30.96,59.57 L 29.33,61.22 L 27.46,62.93 L 25.57,64.60 L 23.85,66.25 L 22.51,67.76 L 21.58,69.24 L 21.02,70.74 L 20.73,72.14 L 20.64,73.54 L 20.65,74.78 L 20.72,75.80 L 20.80,76.61 L 20.80,77.18 L 20.69,77.53 L 20.54,77.71" fill="none" stroke="#1a3c8c" stroke-width="1.6" stroke-linecap="round" stroke-linejoin="round" class="sig-stroke"/>
  <path d="M 31.29,72.10 L 31.29,72.10" fill="none" stroke="#1a3c8c" stroke-width="1.6" stroke-linecap="round" stroke-linejoin="round" class="sig-stroke"/>
  <path d="M 24.43,75.53 L 24.36,75.51 L 24.19,75.49 L 24.07,75.17 L 24.66,73.60 L 26.22,70.58 L 28.67,66.61 L 32.23,61.53 L 36.91,55.67 L 42.67,49.11 L 49.22,42.57 L 56.30,36.66 L 63.16,31.91 L 69.11,28.49 L 73.67,26.30 L 76.84,25.11 L 78.76,24.68 L 79.74,25.23 L 79.93,27.04 L 78.97,30.27 L 76.94,34.46 L 73.19,39.95 L 67.40,46.47 L 59.46,53.99 L 50.33,61.62 L 40.93,68.87 L 32.40,74.99 L 25.33,79.88 L 20.11,83.31 L 16.70,85.36 L 14.78,86.30 L 14.30,86.16 L 15.78,84.63 L 19.52,81.93 L 25.65,78.24 L 34.19,73.58 L 43.21,69.02 L 51.09,65.27 L 57.05,62.50 L 60.90,60.69 L 62.96,59.67 L 63.20,59.43 L 61.53,59.99 L 57.96,61.44 L 52.66,63.66 L 46.45,66.12 L 40.55,68.49 L 35.73,70.42 L 32.93,71.43 L 31.69,71.74 L 32.89,70.92 L 38.39,68.07 L 50.21,61.99 L 66.89,53.15 L 85.64,42.75 L 103.34,32.62 L 117.64,23.68 L 127.52,16.20 L 132.72,10.22 L 134.68,6.00" fill="none" stroke="#1a3c8c" stroke-width="1.6" stroke-linecap="round" stroke-linejoin="round" class="sig-stroke"/>
</svg>